HIERARCHY
ROOT Hips
{
	OFFSET 0.000000 0.000000 0.000000
	CHANNELS 6 Xposition Yposition Zposition Zrotation Yrotation Xrotation 
	JOINT LHipJoint
	{
		OFFSET 0.000000 0.000000 0.000000
		CHANNELS 3 Zrotation Yrotation Xrotation
		JOINT LeftUpLeg
		{
			OFFSET 1.363060 -1.794630 0.839290
			CHANNELS 3 Zrotation Yrotation Xrotation
			JOINT LeftLeg
			{
				OFFSET 2.448110 -6.726130 0.000000
				CHANNELS 3 Zrotation Yrotation Xrotation
				JOINT LeftFoot
				{
					OFFSET 2.562200 -7.039590 0.000000
					CHANNELS 3 Zrotation Yrotation Xrotation
					JOINT LeftToeBase
					{
						OFFSET 0.157640 -0.433110 2.322550
						CHANNELS 3 Zrotation Yrotation Xrotation
						End Site
						{
							OFFSET 0.000000 0.000000 0.000000
						}
					}
				}
			}
		}
	}
	JOINT RHipJoint
	{
		OFFSET 0.000000 0.000000 0.000000
		CHANNELS 3 Zrotation Yrotation Xrotation
		JOINT RightUpLeg
		{
			OFFSET -1.305520 -1.794630 0.839290
			CHANNELS 3 Zrotation Yrotation Xrotation
			JOINT RightLeg
			{
				OFFSET -2.542530 -6.985550 0.000000
				CHANNELS 3 Zrotation Yrotation Xrotation
				JOINT RightFoot
				{
					OFFSET -2.568260 -7.056230 0.000000
					CHANNELS 3 Zrotation Yrotation Xrotation
					JOINT RightToeBase
					{
						OFFSET -0.164730 -0.452590 2.363150
						CHANNELS 3 Zrotation Yrotation Xrotation
						End Site
						{
							OFFSET 0.000000 0.000000 0.000000
						}
					}
				}
			}
		}
	}
}
MOTION
Frames: 13
Frame Time: 0.008333
16.302572 16.513457 1.208263 -18.889688 -89.454574 58.178145 -9.007840 -1.279988 5.850293 2.916371 -19.602588 -55.137625 -0.283026 -0.305295 33.994515 4.619856 14.717898 -27.974749 -5.071200 0.000000 -33.048400 6.073099 -0.019765 6.286150 1.102087 22.048108 -54.651754 1.086086 -0.050485 34.273056 -5.018439 -9.594644 -33.468754 4.793200 0.000000 -37.552800
16.279896 16.418560 1.208576 -14.589198 -89.695258 54.797555 -8.928475 -1.282682 5.920831 2.917402 -19.708046 -57.268788 -0.267531 -0.147784 36.161971 4.754973 14.820123 -29.162138 -5.415300 -0.000000 -32.348100 6.139935 0.128056 6.350623 0.585805 22.052970 -57.027576 0.952381 -0.268441 36.917870 -5.107350 -9.667375 -34.357065 4.988900 0.000000 -36.992200
16.256905 16.314802 1.209064 -8.644348 -89.944984 49.788910 -8.841955 -1.256593 6.003537 2.933315 -19.819526 -59.492461 -0.242041 0.029760 38.437853 4.897474 14.955990 -30.371889 -5.775500 -0.000000 -31.473301 6.221717 0.316778 6.422226 0.056805 22.053346 -59.456528 0.812430 -0.483258 39.633732 -5.191683 -9.743672 -35.241500 5.186300 -0.000001 -36.338400
16.233406 16.201996 1.210012 178.836251 -89.823779 -136.737797 -8.734514 -1.200289 6.097303 2.985030 -19.937787 -61.805757 -0.201358 0.222634 40.817494 5.045903 15.129031 -31.572943 -6.145900 -0.000000 -30.442001 6.331358 0.548208 6.507298 -0.481321 22.064552 -61.931911 0.665551 -0.696199 42.400048 -5.271736 -9.839752 -36.104806 5.386000 -0.000001 -35.579100
16.208963 16.080084 1.211629 -172.679143 -89.654355 -144.252821 -8.594898 -1.128748 6.198848 3.086838 -20.071360 -64.199205 -0.140927 0.421285 43.297160 5.197470 15.335715 -32.733776 -6.519500 -0.000000 -29.283800 6.479531 0.808807 6.611090 -1.028360 22.088131 -64.450391 0.511359 -0.914114 45.201172 -5.347964 -9.973509 -36.934466 5.589001 0.000000 -34.702900
16.183876 15.949296 1.214097 -164.133828 -89.586000 -151.818520 -8.432901 -1.074239 6.305148 3.239595 -20.235969 -66.653135 -0.058244 0.616018 45.868017 5.347671 15.569193 -33.825838 -6.888800 -0.000000 -28.034400 6.657072 1.068012 6.733602 -1.587857 22.108109 -67.003840 0.349612 -1.144403 48.024112 -5.420787 -10.156539 -37.719644 5.795900 0.000000 -33.721100
16.158083 15.809914 1.217482 -156.423071 -89.620463 -158.547350 -8.277073 -1.062970 6.414894 3.431676 -20.438206 -69.146744 0.045602 0.805160 48.514647 5.491202 15.823285 -34.829721 -7.246600 -0.000000 -26.736500 6.836473 1.301804 6.868892 -2.167167 22.109585 -69.579219 0.178413 -1.387116 50.865429 -5.490969 -10.391630 -38.451549 6.007300 0.000000 -32.655500
16.131518 15.662530 1.221860 -150.098736 -89.725460 -163.898384 -8.151961 -1.098821 6.526629 3.649317 -20.666634 -71.657618 0.166992 0.994245 51.218161 5.622970 16.090590 -35.737592 -7.585901 -0.000000 -25.431900 6.993991 1.507603 7.007948 -2.762332 22.088406 -72.152403 -0.003430 -1.635592 53.721100 -5.558293 -10.672469 -39.121885 6.222400 0.000000 -31.553400
16.104491 15.507882 1.227122 -145.218570 -89.863870 -167.825787 -8.063327 -1.170609 6.636360 3.878981 -20.900464 -74.162920 0.301824 1.189040 53.960845 5.739321 16.361175 -36.550528 -7.901500 0.000000 -24.173600 7.123948 1.697070 7.143220 -3.361176 22.047844 -74.697859 -0.195733 -1.883890 56.586382 -5.621872 -10.991681 -39.726651 6.440600 -0.000000 -30.474201
16.076773 15.346863 1.233200 38.402804 -89.987776 9.473152 -8.006373 -1.266271 6.738554 4.106844 -21.121114 -76.637628 0.446269 1.392493 56.726702 5.837917 16.622331 -37.277671 -8.190300 0.000000 -23.015599 7.231089 1.881136 7.268672 -3.944939 21.987921 -77.189550 -0.396367 -2.129804 59.451510 -5.680421 -11.340471 -40.267357 6.660600 -0.000000 -29.496100
16.048498 15.180500 1.239918 41.032824 -89.839884 7.720379 -7.973769 -1.377124 6.827734 4.317116 -21.316689 -79.055203 0.596885 1.605308 59.499533 5.917905 16.862494 -37.933513 -8.452200 0.000000 -22.013500 7.322854 2.065582 7.379179 -4.492545 21.904103 -79.602470 -0.602367 -2.374038 62.304090 -5.732615 -11.708625 -40.749582 6.880800 0.000000 -28.708500
16.019670 15.009866 1.247014 42.968703 -89.693733 6.609974 -7.958063 -1.497413 6.899417 4.493258 -21.483079 -81.392793 0.750761 1.827000 62.263166 5.980000 17.073354 -38.536224 -8.689600 0.000000 -21.223600 7.406401 2.252579 7.470917 -4.988325 21.789742 -81.917751 -0.811249 -2.618707 65.132188 -5.777865 -12.086477 -41.184502 7.100200 0.000000 -28.192100
15.990350 14.836235 1.254363 44.381768 -89.546749 5.962380 -7.954774 -1.622948 6.951276 4.622132 -21.621303 -83.628262 0.905813 2.056642 65.000504 6.026044 17.251413 -39.105098 -8.907399 -0.000000 -20.691799 7.486206 2.441205 7.540630 -5.415803 21.637319 -84.116099 -1.020510 -2.865853 67.920497 -5.815828 -12.463065 -41.583532 7.317500 -0.000000 -28.025000
